<?xml version="1.0" encoding="UTF-8"?>
<svg id="Layer_1" data-name="Layer 1" xmlns="http://www.w3.org/2000/svg" xmlns:xlink="http://www.w3.org/1999/xlink" viewBox="0 0 175.94 57.58">
  <defs>
    <style>
      .cls-1 {
        fill: none;
      }

      .cls-2 {
        fill: #1a202c;
      }

      .cls-3 {
        clip-path: url(#clippath);
      }
    </style>
    <clipPath id="clippath">
      <rect class="cls-1" width="175.94" height="57.58"/>
    </clipPath>
  </defs>
  <g class="cls-3">
    <g>
      <path class="cls-2" d="M11.09,45.97c.3,0,.55-.2.62-.49.04-.17.09-.36.15-.53.41-1.07,1.45-1.78,2.6-1.79h12.83c1.38,0,2.48.97,2.74,2.3.05.3.32.51.62.51h1.03c.69,0,1.25.56,1.26,1.24v1.63c0,.91-.41,1.32-1.32,1.32H10.04c-.81-.03-1.22-.44-1.23-1.24v-1.8c.02-.71.47-1.15,1.17-1.16.37,0,.74,0,1.11,0ZM28.86,10.63c-.47.41-.71,1.02-.64,1.64.03.24-.09.49-.32.57-2.24.68-9.81,8.07-10.44,10.34-.06.24-.33.34-.57.31-.62-.06-1.23.17-1.65.64-.69.79-.63,1.98.12,2.7l7.9,7.82c.73.74,1.93.79,2.72.12.47-.41.71-1.02.64-1.64-.03-.24.11-.46.32-.57,1.52-.77,2.92-1.76,4.14-2.94l.11.13c2.08,2.35,4.14,4.7,6.21,7.06l5.39,6.13c1.43,1.64,3.92,1.83,5.58.42.08-.06.15-.13.22-.2,1.57-1.48,1.63-3.94.14-5.49-.15-.15-.31-.29-.48-.42l-1.79-1.4-.72-.57-2.34-1.83-9.1-7.15c1.24-1.38,2.49-2.92,3.06-4.09.1-.21.33-.33.57-.31.62.06,1.23-.17,1.65-.64.69-.79.63-1.97-.12-2.69l-7.9-7.82c-.74-.73-1.92-.78-2.72-.12"/>
      <path class="cls-2" d="M69.55,42.4c-1.75,0-3.31-.28-4.69-.85-1.38-.57-2.49-1.41-3.33-2.52-.82-1.11-1.25-2.45-1.29-4.01h6.19c.09.88.4,1.56.92,2.04.52.45,1.2.68,2.04.68s1.54-.19,2.04-.58c.5-.41.75-.96.75-1.67,0-.59-.2-1.08-.61-1.46-.39-.39-.87-.7-1.46-.95-.57-.25-1.38-.53-2.45-.85-1.54-.48-2.8-.95-3.77-1.43-.97-.48-1.81-1.18-2.52-2.11-.7-.93-1.05-2.14-1.05-3.64,0-2.22.8-3.96,2.41-5.2,1.61-1.27,3.71-1.9,6.29-1.9s4.75.63,6.36,1.9c1.61,1.25,2.47,2.99,2.58,5.24h-6.29c-.05-.77-.33-1.37-.85-1.8-.52-.45-1.19-.68-2.01-.68-.7,0-1.27.19-1.7.58-.43.36-.65.9-.65,1.6,0,.77.36,1.37,1.09,1.8.73.43,1.86.9,3.4,1.39,1.54.52,2.79,1.02,3.74,1.5.97.48,1.81,1.17,2.52,2.07.7.91,1.05,2.07,1.05,3.5s-.35,2.6-1.05,3.71c-.68,1.11-1.68,2-2.99,2.65s-2.87.99-4.66.99ZM93.12,42.4c-2.24,0-4.31-.52-6.19-1.56-1.86-1.04-3.34-2.49-4.45-4.35-1.09-1.88-1.63-3.99-1.63-6.32s.54-4.43,1.63-6.29c1.11-1.86,2.6-3.31,4.45-4.35,1.88-1.04,3.94-1.56,6.19-1.56s4.29.52,6.15,1.56c1.88,1.04,3.35,2.49,4.42,4.35,1.09,1.86,1.63,3.96,1.63,6.29s-.54,4.44-1.63,6.32c-1.09,1.86-2.56,3.31-4.42,4.35-1.86,1.04-3.91,1.56-6.15,1.56ZM93.12,37.1c1.9,0,3.42-.63,4.56-1.9,1.16-1.27,1.73-2.95,1.73-5.03s-.58-3.79-1.73-5.03c-1.13-1.27-2.65-1.9-4.56-1.9s-3.47.62-4.62,1.87c-1.13,1.25-1.7,2.94-1.7,5.07s.57,3.8,1.7,5.07c1.16,1.25,2.7,1.87,4.62,1.87ZM114.38,37.68h7.62v4.49h-13.43v-23.87h5.81v19.38ZM140.61,25.85c-.43-.79-1.05-1.39-1.87-1.8-.79-.43-1.73-.65-2.82-.65-1.88,0-3.39.62-4.52,1.87-1.13,1.22-1.7,2.87-1.7,4.93,0,2.2.59,3.92,1.77,5.17,1.2,1.22,2.84,1.84,4.93,1.84,1.43,0,2.63-.36,3.6-1.09,1-.73,1.72-1.77,2.18-3.13h-7.38v-4.28h12.65v5.41c-.43,1.45-1.17,2.8-2.21,4.05-1.02,1.25-2.32,2.25-3.91,3.03-1.59.77-3.38,1.16-5.37,1.16-2.36,0-4.47-.51-6.32-1.53-1.84-1.04-3.28-2.48-4.32-4.32-1.02-1.84-1.53-3.93-1.53-6.29s.51-4.45,1.53-6.29c1.04-1.86,2.48-3.3,4.32-4.32,1.84-1.04,3.93-1.56,6.29-1.56,2.86,0,5.26.69,7.21,2.07,1.97,1.38,3.28,3.3,3.91,5.75h-6.43ZM167.83,18.3v4.66h-6.32v19.21h-5.81v-19.21h-6.32v-4.66h18.46Z"/>
    </g>
  </g>
</svg>